<?xml version="1.0" standalone="no"?>
<!DOCTYPE svg PUBLIC "-//W3C//DTD SVG 1.1//EN" "http://www.w3.org/Graphics/SVG/1.1/DTD/svg11.dtd" >
<svg xmlns="http://www.w3.org/2000/svg">
<metadata>Generated by IcoMoon</metadata>
<defs>
<font id="icomoon" horiz-adv-x="1024">
<font-face units-per-em="1024" ascent="960" descent="-64" />
<missing-glyph horiz-adv-x="1024" />
<glyph unicode="&#x20;" horiz-adv-x="512" d="" />
<glyph unicode="&#xe900;" glyph-name="fa-dribbble" horiz-adv-x="975" d="M650.289 45.519c-47.82-21.753-103.692-34.488-162.524-34.621h-0.048c-100.937 0-193.097 37.937-265.46 99.913 0 0 5.705-3.998 9.557-7.314 79.97 182.565 327.046 273.164 327.046 273.164 0.634 0 1.902 0.683 2.536 0.683 58.417-159.939 82.554-293.205 88.893-331.825zM532.773 449.95c-5.071-1.999-10.728-3.316-16.482-5.364 0 0-224.792-75.922-338.456-288.475-66.335 77.764-106.693 179.442-106.693 290.545 0 0.455 0.001 0.911 0.002 1.366v-0.071c0 4.681 0 9.314 0.634 13.995 6.973 0 212.699-5.364 427.349 61.928 12.093-24.625 23.503-49.25 33.646-73.923zM464.847 591.214c-200.021-55.296-374.004-53.297-384.829-53.297 27.307 135.217 113.664 247.857 229.864 305.152 49.895-70.643 101.231-152.947 148.034-238.094l6.931-13.761zM899.218 378.612c-19.017-121.905-85.090-227.182-178.469-293.108-21.5 120.364-49.68 225.359-85.682 326.647l4.396-14.18c134.632 21.992 250.88-16.628 259.755-19.31zM387.998 872.375c-0.634 0-1.268-0.683-1.268-0.683 0.634 0.683 0.634 0.683 1.268 0.683zM762.685 775.778c-1.268-1.999-60.318-96.646-217.186-157.94-51.675 98.424-103.497 181.677-160.585 260.883l4.352-6.346c29.5 7.893 63.398 12.508 98.348 12.678h0.103c105.423 0 201.923-41.35 274.968-109.275zM904.29 452.632c-5.071 0.634-146.676 33.304-290.182 13.995-3.218 7.314-5.754 15.311-8.923 22.626-13.657 33.237-23.039 54.069-32.786 74.694l4.846-11.401c164.474 70.656 231.131 171.934 232.448 173.251 58.417-74.606 93.33-169.886 94.598-273.164zM975.433 447.951c0 282.478-218.453 511.707-487.717 511.707s-487.717-229.181-487.717-511.659 218.453-511.707 487.717-511.707 487.717 229.181 487.717 511.707z" />
<glyph unicode="&#xe901;" glyph-name="fa-flickr" horiz-adv-x="1178" d="M1177.805 767.795v-639.642c0-105.984-98.918-191.898-220.826-191.898h-736.154c-121.907 0-220.826 85.914-220.826 191.898v639.642c0 105.933 98.918 191.846 220.826 191.846h736.154c121.907 0 220.826-85.914 220.826-191.846zM372.685 589.21c-89.754 0-162.56-63.283-162.56-141.261s72.806-141.261 162.56-141.261c89.702 0 162.56 63.283 162.56 141.312 0 77.926-72.858 141.21-162.56 141.21zM805.171 589.21c-89.754 0-162.56-63.283-162.56-141.261s72.806-141.261 162.56-141.261c89.702 0 162.56 63.283 162.56 141.312 0 77.926-72.858 141.21-162.56 141.21z" />
<glyph unicode="&#xe902;" glyph-name="fa-twitter" horiz-adv-x="1178" d="M1177.805 838.298c-40.449-19.446-87.4-33.524-136.797-39.754l-2.263-0.233c50.61 33.113 88.229 82.46 105.721 140.529l0.468 1.807c-46.387-29.542-98.714-51.2-153.242-62.362-44.134 50.381-106.906 81.613-176.435 81.613-133.786 0-241.459-116.019-241.459-258.406 0-19.968 2.253-39.936 5.99-59.187-200.294 11.264-378.982 113.613-497.818 270.387-20.693-37.321-32.873-81.839-32.873-129.201 0-0.424 0.001-0.847 0.003-1.271v0.066c0-89.6 42.598-168.755 107.622-215.142-40.542 1.784-77.948 13.736-110.182 33.346l1.023-0.578v-3.174c0-125.594 82.944-229.581 193.638-253.594-20.224-5.632-41.882-8.806-63.539-8.806-15.718 0-30.669 1.638-45.568 3.994 30.618-102.4 119.552-176.742 225.69-179.2-82.944-69.53-186.88-110.336-299.725-110.336-20.173 0-38.912 0.768-58.368 3.174 103.452-72.569 231.972-115.968 370.629-115.968 0.057 0 0.114 0 0.171 0h-0.009c444.058 0 686.95 393.574 686.95 735.13 0 11.213 0 22.374-0.717 33.587 47.104 36.813 88.218 82.432 121.088 133.581z" />
<glyph unicode="&#xe903;" glyph-name="fa-android" horiz-adv-x="883" d="M333.436 765.793c0 13.329-10.805 24.135-24.135 24.135s-24.135-10.805-24.135-24.135v0c0-13.329 10.805-24.135 24.135-24.135s24.135 10.805 24.135 24.135v0zM597.274 765.793c0 13.329-10.805 24.135-24.135 24.135s-24.135-10.805-24.135-24.135v0c0-13.329 10.805-24.135 24.135-24.135s24.135 10.805 24.135 24.135v0zM128.494 565.689v-264.792c0-35.098-28.248-63.417-63.912-63.417-35.769 0-64.583 28.319-64.583 63.417v264.792c0 34.463 28.813 62.817 64.547 62.817 35.098 0 63.912-28.354 63.912-62.852zM728.876 206.689c0-37.57-30.72-67.761-68.29-67.761h-46.998v-139.758c0-35.098-28.849-63.453-64.583-63.453-35.699 0-64.547 28.354-64.547 63.453v139.758h-86.51v-139.758c0-35.098-28.813-63.453-64.512-63.453-35.098 0-63.912 28.354-63.912 63.453l-0.671 139.758h-46.362c-38.241 0-68.926 30.19-68.926 67.761v410.094h575.311zM730.783 638.958h-579.725c0 97.916 59.533 182.908 147.88 227.222l-44.491 80.684c-0.812 1.313-1.293 2.905-1.293 4.61 0 3.265 1.766 6.118 4.394 7.655l0.042 0.023c4.378 1.871 10.028 0.636 12.535-3.672l45.127-81.284c36.83 16.337 79.791 25.849 124.974 25.849 0.344 0 0.687-0.001 1.031-0.002h-0.053c45.127 0 87.746-9.216 125.987-25.847l45.127 81.284c2.507 4.308 8.121 5.544 12.535 3.672 4.378-2.472 5.65-7.98 3.143-12.288l-44.491-80.684c87.711-44.314 147.244-129.306 147.244-227.222zM882.441 300.897c0-35.098-28.849-63.417-64.547-63.417-35.098 0-63.912 28.319-63.912 63.417v264.792c0 35.098 28.813 62.817 63.912 62.817 35.699 0 64.547-27.719 64.547-62.852z" />
<glyph unicode="&#xe904;" glyph-name="fa-apple" horiz-adv-x="896" d="M816.683 58.667c-55.296-80.597-110.592-120.576-165.248-120.576-21.888 0-51.456 6.741-90.027 19.669-37.973 13.525-70.741 19.712-97.109 19.712-25.728 0-56.619-6.827-91.307-20.309-35.413-14.165-63.701-20.907-84.907-20.907-66.219 0-129.877 53.504-193.536 159.36-62.379 105.813-94.549 208.597-94.549 309.504 0 94.165 24.448 170.453 72.661 230.144 48.213 59.093 108.672 88.619 182.613 88.619 31.531 0 68.821-6.144 113.835-18.475 44.373-12.288 73.941-18.432 88.747-18.432 18.645 0 49.493 6.741 91.947 20.907 42.453 13.525 79.787 20.907 111.275 20.907 51.413 0 97.109-13.525 136.96-39.979 22.485-14.763 45.013-35.712 66.859-61.525-33.408-27.093-57.856-51.072-73.301-72.619-26.114-34.876-41.815-78.864-41.815-126.519 0-0.311 0.001-0.622 0.002-0.932v0.048c-0.005-0.585-0.008-1.276-0.008-1.968 0-50.896 16.657-97.901 44.817-135.862l-0.435 0.614c29.611-40.619 63.701-66.475 101.632-77.525-16.085-48.64-41.813-100.267-79.104-153.856zM635.349 850.645c-12.885-30.763-32.811-59.051-59.819-84.907-23.125-22.187-46.293-36.949-69.461-44.331-14.763-4.267-36.651-7.979-66.859-10.453 1.28 60.928 18.005 113.835 50.176 158.165 32.128 44.288 86.187 74.453 160.725 91.051 1.28-5.547 2.56-9.813 3.243-13.525 0-4.309 0.64-8.021 0.64-12.331 0-25.173-6.4-53.504-18.645-83.669z" />
<glyph unicode="&#xe905;" glyph-name="fa-check" horiz-adv-x="1280" d="M1279.936 760.064c0 21.568-8.256 43.072-23.104 58.624l-112.32 117.184c-14.205 14.791-34.11 24.015-56.171 24.128h-0.021c-20.672 0-41.28-8.576-56.192-24.128l-541.824-566.272-242.816 254.272c-14.208 14.785-34.112 24.008-56.17 24.128h-0.022c-20.608 0-41.28-8.64-56.128-24.128l-112.32-117.248c-14.35-15.248-23.168-35.844-23.168-58.5 0-0.044 0-0.088 0-0.131v0.007c0-21.504 8.32-43.072 23.168-58.624l411.328-429.248c14.848-15.488 35.52-24.128 56.128-24.128 20.672 0 41.344 8.64 56.192 24.128l710.336 741.312c14.848 15.488 23.104 37.056 23.104 58.624z" />
<glyph unicode="&#xe906;" glyph-name="fa-dribbble1" horiz-adv-x="975" d="M650.289 45.519c-47.82-21.753-103.692-34.488-162.524-34.621h-0.048c-100.937 0-193.097 37.937-265.46 99.913 0 0 5.705-3.998 9.557-7.314 79.97 182.565 327.046 273.164 327.046 273.164 0.634 0 1.902 0.683 2.536 0.683 58.417-159.939 82.554-293.205 88.893-331.825zM532.773 449.95c-5.071-1.999-10.728-3.316-16.482-5.364 0 0-224.792-75.922-338.456-288.475-66.335 77.764-106.693 179.442-106.693 290.545 0 0.455 0.001 0.911 0.002 1.366v-0.071c0 4.681 0 9.314 0.634 13.995 6.973 0 212.699-5.364 427.349 61.928 12.093-24.625 23.503-49.25 33.646-73.923zM464.847 591.214c-200.021-55.296-374.004-53.297-384.829-53.297 27.307 135.217 113.664 247.857 229.864 305.152 49.895-70.643 101.231-152.947 148.034-238.094l6.931-13.761zM899.218 378.612c-19.017-121.905-85.090-227.182-178.469-293.108-21.5 120.364-49.68 225.359-85.682 326.647l4.396-14.18c134.632 21.992 250.88-16.628 259.755-19.31zM387.998 872.375c-0.634 0-1.268-0.683-1.268-0.683 0.634 0.683 0.634 0.683 1.268 0.683zM762.685 775.778c-1.268-1.999-60.318-96.646-217.186-157.94-51.675 98.424-103.497 181.677-160.585 260.883l4.352-6.346c29.5 7.893 63.398 12.508 98.348 12.678h0.103c105.423 0 201.923-41.35 274.968-109.275zM904.29 452.632c-5.071 0.634-146.676 33.304-290.182 13.995-3.218 7.314-5.754 15.311-8.923 22.626-13.657 33.237-23.039 54.069-32.786 74.694l4.846-11.401c164.474 70.656 231.131 171.934 232.448 173.251 58.417-74.606 93.33-169.886 94.598-273.164zM975.433 447.951c0 282.478-218.453 511.707-487.717 511.707s-487.717-229.181-487.717-511.659 218.453-511.707 487.717-511.707 487.717 229.181 487.717 511.707z" />
<glyph unicode="&#xe907;" glyph-name="fa-flickr1" horiz-adv-x="1178" d="M1177.805 767.795v-639.642c0-105.984-98.918-191.898-220.826-191.898h-736.154c-121.907 0-220.826 85.914-220.826 191.898v639.642c0 105.933 98.918 191.846 220.826 191.846h736.154c121.907 0 220.826-85.914 220.826-191.846zM372.685 589.21c-89.754 0-162.56-63.283-162.56-141.261s72.806-141.261 162.56-141.261c89.702 0 162.56 63.283 162.56 141.312 0 77.926-72.858 141.21-162.56 141.21zM805.171 589.21c-89.754 0-162.56-63.283-162.56-141.261s72.806-141.261 162.56-141.261c89.702 0 162.56 63.283 162.56 141.312 0 77.926-72.858 141.21-162.56 141.21z" />
<glyph unicode="&#xe908;" glyph-name="fa-twitter1" horiz-adv-x="1178" d="M1177.805 838.298c-40.449-19.446-87.4-33.524-136.797-39.754l-2.263-0.233c50.61 33.113 88.229 82.46 105.721 140.529l0.468 1.807c-46.387-29.542-98.714-51.2-153.242-62.362-44.134 50.381-106.906 81.613-176.435 81.613-133.786 0-241.459-116.019-241.459-258.406 0-19.968 2.253-39.936 5.99-59.187-200.294 11.264-378.982 113.613-497.818 270.387-20.693-37.321-32.873-81.839-32.873-129.201 0-0.424 0.001-0.847 0.003-1.271v0.066c0-89.6 42.598-168.755 107.622-215.142-40.542 1.784-77.948 13.736-110.182 33.346l1.023-0.578v-3.174c0-125.594 82.944-229.581 193.638-253.594-20.224-5.632-41.882-8.806-63.539-8.806-15.718 0-30.669 1.638-45.568 3.994 30.618-102.4 119.552-176.742 225.69-179.2-82.944-69.53-186.88-110.336-299.725-110.336-20.173 0-38.912 0.768-58.368 3.174 103.452-72.569 231.972-115.968 370.629-115.968 0.057 0 0.114 0 0.171 0h-0.009c444.058 0 686.95 393.574 686.95 735.13 0 11.213 0 22.374-0.717 33.587 47.104 36.813 88.218 82.432 121.088 133.581z" />
<glyph unicode="&#xe90a;" glyph-name="banknote" d="M1021.12 557.152c-20.768-67.36-56.256-125.504-108.384-177.632-61.344-61.312-136.192-104.8-208.608-146.88-68.288-39.616-132.8-77.056-182.304-126.56-37.12-37.056-62.144-77.92-76.672-124.928-6.759-21.405-23.875-37.695-45.316-43.168l-0.444-0.096c-21.76-5.376-44.8 1.024-60.672 16.896l-320 320c-11.569 11.589-18.723 27.589-18.723 45.26 0 6.746 1.043 13.248 2.975 19.354l-0.124-0.454c20.8 67.392 56.32 125.44 108.416 177.6 61.344 61.344 136.192 104.864 208.64 146.88 68.256 39.584 132.768 77.12 182.304 126.592 37.056 37.056 62.112 77.952 76.64 124.928 6.783 21.375 23.892 37.637 45.316 43.104l0.444 0.096c21.76 5.376 44.8-0.992 60.672-16.864l320-320c16.768-16.768 22.848-41.44 15.872-64.128zM960 576.032c-105.984 105.984-214.016 214.080-320 320-90.912-294.464-485.088-281.568-576-576l320-320c90.912 294.4 485.088 281.632 576 576zM645.024 458.592c3.616-9.056 4.928-19.072 3.808-30.112-1.573-13.068-5.161-24.961-10.468-35.864l0.292 0.664c-5.696-12.256-13.376-24.64-22.944-36.384 5.6-4.992 11.232-9.76 16.864-14.24 2.307-1.886 3.819-4.67 3.999-7.811l0.001-0.029c0.040-0.372 0.063-0.804 0.063-1.241 0-3.114-1.165-5.957-3.082-8.115l0.011 0.013c-2.024-2.623-5.118-4.336-8.617-4.479l-0.023-0.001c-0.344-0.036-0.744-0.057-1.148-0.057-2.911 0-5.57 1.076-7.601 2.853l0.013-0.012c-5.568 4.992-11.2 10.208-16.8 15.616-11.552-11.616-23.328-19.424-35.2-23.744-8.528-3.392-18.411-5.36-28.753-5.36-12.212 0-23.783 2.743-34.132 7.646l0.485-0.207c-8.267 3.8-15.285 8.953-21.078 15.25l-0.042 0.046c-5.344 6.080-8.096 12.16-8.096 18.112 0.087 6.436 3.129 12.143 7.828 15.839l0.044 0.033c5.12 4.384 9.76 6.528 14.144 6.432 4.352-0.032 8.64-1.152 12.736-3.2 4.16-2.080 8.384-4.576 12.608-7.52 4.256-2.88 8.896-5.12 13.888-6.72 4.992-1.472 10.496-1.6 16.704-0.288 6.176 1.28 13.184 5.12 21.184 11.84-17.68 19.011-36.221 39.741-54.365 60.823l-2.403 2.857c-23.744-12.736-45.856-18.88-66.368-20.128-20.576-1.216-38.304 4.096-53.376 16.576-9.248 7.712-15.552 15.84-19.008 25.408-2.459 6.718-3.882 14.475-3.882 22.564 0 2.954 0.19 5.863 0.558 8.717l-0.036-0.338c1.184 11.136 4.384 22.56 9.76 34.112 5.312 11.52 12.032 22.432 20.224 32.32-2.080 1.824-4.16 3.552-6.24 5.312-2.341 1.958-3.874 4.815-4.063 8.033l-0.001 0.031c-0.054 0.416-0.085 0.897-0.085 1.385 0 2.99 1.152 5.71 3.035 7.742l-0.007-0.007c2.059 2.589 5.203 4.239 8.733 4.256h0.003c0.148 0.007 0.321 0.010 0.496 0.010 3.151 0 6.018-1.221 8.151-3.217l-0.007 0.006c2.080-1.92 4.16-3.84 6.24-5.888 5.44 5.376 12.768 10.912 21.888 16.256 8.311 5.004 17.945 8.971 28.178 11.384l0.686 0.136c10.24 2.24 20.128 2.368 29.76 0.672 9.728-1.728 17.856-6.4 24.64-14.176 5.216-6.016 7.616-12.128 7.296-18.432-0.267-6.209-3.143-11.697-7.553-15.43l-0.031-0.026c-3.007-2.646-6.978-4.261-11.326-4.261-1.339 0-2.643 0.153-3.894 0.443l0.116-0.023c-9.491 1.934-15.759 3.418-21.977 5.022l3.353-0.734c-5.312 1.406-11.41 2.214-17.697 2.214-1.114 0-2.222-0.025-3.323-0.076l0.156 0.006c-7.264-0.256-14.752-3.84-22.528-10.848 16.363-17.383 33.209-36.053 49.662-55.072l1.922-2.272c10.88 5.216 21.696 9.792 32.416 13.984 9.382 3.761 20.25 6.367 31.592 7.301l0.408 0.027c10.624 0.736 21.12-0.448 31.648-3.392 10.56-2.912 21.056-8.864 31.488-17.6 9.12-7.584 15.488-15.456 19.072-24.64zM479.072 472.256c-16.434 18.723-32.311 35.704-48.693 52.182l0.053-0.054c-4.48-4.864-8-9.92-10.368-14.976-2.24-4.322-3.785-9.363-4.337-14.699l-0.015-0.181c-0.139-1.126-0.218-2.429-0.218-3.751 0-3.436 0.536-6.747 1.53-9.854l-0.063 0.229c1.248-4.064 3.296-7.52 6.24-10.304 5.642-5.775 13.508-9.356 22.211-9.356 0.584 0 1.165 0.016 1.742 0.048l-0.080-0.004c9.056 0.384 19.744 3.968 32 10.72zM603.776 413.44c0.378 2.032 0.594 4.369 0.594 6.757 0 3.166-0.38 6.243-1.097 9.188l0.054-0.265c-1.489 5.654-4.468 10.48-8.492 14.19l-0.020 0.018c-3.934 3.998-8.898 6.972-14.462 8.491l-0.226 0.053c-2.899 0.749-6.226 1.179-9.654 1.179-2.172 0-4.304-0.173-6.383-0.505l0.229 0.030c-5.847-0.976-11.072-2.534-16-4.651l0.448 0.171c-5.184-2.208-10.016-4.32-14.56-6.4 17.92-20.416 35.84-40.32 53.76-58.432 3.822 4.13 7.16 8.796 9.872 13.849l0.176 0.359c2.63 4.617 4.632 9.983 5.709 15.675l0.051 0.325zM492.352 249.216c2.915-2.904 4.719-6.921 4.719-11.36s-1.804-8.456-4.719-11.359l-0.001-0.001c-0.48-0.48-1.056-0.832-1.6-1.28l0.032-0.064c-20.224-15.36-36.896-29.248-54.848-47.2-15.429-15.37-29.7-31.874-42.688-49.387l-0.832-1.173-20.48-28c-0.682-1.218-1.468-2.269-2.372-3.204l0.004 0.004c-2.89-2.785-6.826-4.501-11.164-4.501-8.89 0-16.096 7.206-16.096 16.096 0 3.149 0.904 6.086 2.467 8.567l-0.039-0.067-0.064 0.064 21.888 29.856c14.832 20.114 30.154 37.871 46.711 54.391l0.009 0.009c17.6 17.32 36.386 33.591 56.168 48.62l1.432 1.044h0.064c2.74 2.241 6.277 3.598 10.132 3.598 4.411 0 8.406-1.778 11.309-4.655l-0.001 0.001zM631.552 763.712l21.312 29.12c0.792 1.514 1.718 2.818 2.795 3.98l-0.011-0.012c2.892 2.775 6.826 4.483 11.159 4.483 8.907 0 16.128-7.221 16.128-16.128 0-3.902-1.386-7.481-3.692-10.271l0.022 0.027 0.064-0.096-21.888-29.952c-14.827-20.087-30.149-37.824-46.706-54.322l-0.014-0.014c-17.606-17.313-36.392-33.593-56.162-48.646l-1.438-1.050-0.064 0.064c-2.878-2.688-6.755-4.338-11.017-4.338-8.925 0-16.16 7.235-16.16 16.16 0 6.14 3.425 11.481 8.468 14.215l0.085 0.042c18.784 14.368 36.928 29.44 53.632 46.144 16.192 16.192 30.848 33.216 43.52 50.592z" />
<glyph unicode="&#xe90b;" glyph-name="cup" horiz-adv-x="896" d="M896 736.032v-96c0-35.346-28.654-64-64-64v0h-33.088c0-2.4 0.96-4.64 0.672-7.040l-64-576c-3.65-32.191-30.72-56.975-63.582-56.992h-448.002c-32.854 0.015-59.919 24.783-63.557 56.666l-0.027 0.294-64 576c-0.32 2.4 0.672 4.64 0.672 7.040h-33.088c-35.346 0-64 28.654-64 64v0 96c0 33.952 26.688 61.056 60.096 63.232l39.168 117.056c8.75 25.618 32.611 43.712 60.699 43.712 0.013 0 0.026 0 0.039 0h575.998c0.011 0 0.024 0 0.037 0 28.088 0 51.95-18.094 60.565-43.262l0.134-0.45 38.848-117.024c33.6-1.952 60.416-29.184 60.416-63.264zM128 800.032h640l-32 96h-576zM672 0.032l10.656 96h-469.312l10.656-96zM721.792 448.032h-547.584l35.584-320h476.416zM736 576.032h-576l10.656-96h554.688zM832 736.032h-768v-96h768z" />
<glyph unicode="&#xe90e;" glyph-name="film" d="M33.28 926.822h957.44v-957.44h-957.44zM294.4 491.622h435.2v348.16h-435.2zM294.4 56.422h435.2v348.109h-435.2zM816.64 752.742h87.040v87.040h-87.040zM816.64 622.131h87.040v87.040h-87.040zM816.64 491.571h87.040v87.040h-87.040zM816.64 317.542h87.040v86.989h-87.040zM816.64 186.982h87.040v86.989h-87.040zM816.64 56.422h87.040v87.040h-87.040zM120.32 752.742h87.040v87.040h-87.040zM120.32 622.131h87.040v87.040h-87.040zM120.32 491.571h87.040v87.040h-87.040zM120.32 317.542h87.040v86.989h-87.040zM120.32 186.982h87.040v86.989h-87.040zM120.32 56.422h87.040v87.040h-87.040z" />
<glyph unicode="&#xe910;" glyph-name="lab" d="M909.024 593.344c15.040-14.976 23.456-35.104 23.456-56.576 0-21.44-8.416-41.6-23.648-56.736l-45.056-45.024c-15.040-15.168-35.2-23.456-56.544-23.456-0.088 0-0.191-0.001-0.295-0.001-16.193 0-31.253 4.85-43.807 13.176l0.294-0.183-170.912-428c-14.374-35.723-48.737-60.481-88.883-60.481-0.117 0-0.234 0-0.351 0.001h-2.414c-25.629 0.574-48.672 11.193-65.435 28.059l-0.005 0.005-407.040 402.56c-17.524 17.397-28.372 41.5-28.372 68.136 0 39.051 23.317 72.656 56.788 87.653l435.072 174.292c-7.452 11.883-11.872 26.325-11.872 41.8 0 0.065 0 0.13 0 0.195v-0.010c0 21.44 8.352 41.536 23.488 56.64l45.152 45.152c14.39 14.507 34.333 23.488 56.373 23.488 0.094 0 0.188 0 0.282 0h-0.015c21.312 0 41.408-8.32 56.512-23.456zM684.384 399.104c-134.112 143.072-268.192 100.16-402.24 144.736l-198.976-79.744c-11.376-5.073-19.162-16.283-19.162-29.312 0-8.835 3.58-16.834 9.37-22.624v0l407.296-402.784c5.756-5.788 13.726-9.369 22.531-9.369 2.345 0 4.631 0.254 6.831 0.736l-0.21-0.039c10.674 2.277 19.239 9.638 23.156 19.369l0.076 0.215zM863.744 548.096l-247.168 247.232c-2.89 2.92-6.898 4.727-11.328 4.727s-8.438-1.808-11.327-4.726l-0.001-0.001-45.216-45.28c-2.894-2.895-4.685-6.895-4.685-11.312s1.79-8.417 4.685-11.312l54.88-54.848-271.744-108.864c27.072-5.856 54.56-9.472 82.944-12.96 88.32-10.88 186.24-22.944 282.56-119.136l-3.84-9.696 45.824 114.88 56.576-56.576c2.888-2.91 6.89-4.711 11.312-4.711s8.424 1.801 11.311 4.71l45.217 45.249c2.91 2.888 4.711 6.89 4.711 11.312s-1.801 8.424-4.71 11.311l-0.001 0.001zM448 368c0 44.16 35.904 80 80 80s80-35.84 80-80c0-44.128-35.904-79.968-80-79.968s-80 35.84-80 80zM480 368c0-26.51 21.49-48 48-48s48 21.49 48 48v0c0 26.51-21.49 48-48 48s-48-21.49-48-48v0zM1024 880c0-44.096-35.904-80-80-80-44.161 0.055-79.945 35.839-80 79.995v0.005c0 44.16 35.904 80 80 80s80-35.84 80-80zM992 880c0.010 0.374 0.016 0.814 0.016 1.255 0 26.51-21.49 48-48 48s-48-21.49-48-48c0-0.43 0.006-0.859 0.017-1.286l-0.001 0.063c0.692-25.971 21.91-46.761 47.984-46.761s47.292 20.79 47.983 46.697l0.001 0.064zM320 480.032c35.296 0 64-28.704 64-64s-28.704-64-64-64-64 28.704-64 64 28.704 64 64 64zM288 416.032c0-17.673 14.327-32 32-32s32 14.327 32 32v0c0 17.673-14.327 32-32 32s-32-14.327-32-32v0zM384 224.032c-0.021 0.432-0.033 0.938-0.033 1.447 0 17.673 14.327 32 32 32s32-14.327 32-32c0-0.498-0.011-0.992-0.034-1.484l0.003 0.070c-0.769-17.061-14.788-30.602-31.969-30.602-17.159 0-31.163 13.505-31.964 30.466l-0.003 0.072zM960 704.032c0.021-0.432 0.033-0.938 0.033-1.447 0-17.673-14.327-32-32-32s-32 14.327-32 32c0 0.498 0.011 0.992 0.034 1.484l-0.003-0.070c0.787 17.047 14.798 30.569 31.968 30.569s31.181-13.523 31.965-30.499l0.003-0.070z" />
<glyph unicode="&#xe911;" glyph-name="lamp" horiz-adv-x="717" d="M710.4 608.051c0-128.026-117.862-266.189-160.998-386.534-64.128-178.816-55.014-285.491-191.002-285.491-133.99 0-126.899 107.162-190.976 286.259-43.008 120.064-161.024 256.768-161.024 385.766 0 194.381 157.594 352 352 352s352-157.619 352-352zM452.864 128.614c2.586 8.883 5.632 18.816 8.448 28.288l-198.042-24.73 0.282-1.024c7.373-24.986 13.466-44.186 19.123-60.595l158.694 19.866c3.533 11.315 7.322 23.808 11.52 38.195zM471.526 190.157c3.405 10.854 7.347 22.374 11.264 33.869h-248.525c7.322-21.504 13.875-41.805 19.712-61.056zM430.106 56.986l-135.603-16.973c16.563-36.25 31.488-39.987 63.898-39.987 37.786 0 52.096 4.045 71.706 56.96zM561.434 390.579c41.779 75.162 84.966 152.883 84.966 217.472 0 158.797-129.178 288-288 288s-288-129.203-288-288c0-65.075 43.162-142.362 84.915-217.088 18.867-33.792 37.99-68.378 53.939-102.912h298.65c15.846 34.355 34.816 68.813 53.504 102.528zM374.4 784.026c0-8.858-7.168-16-16-16-88.325-0.102-159.898-71.676-160-159.99v-0.010c0-8.837-7.163-16-16-16s-16 7.163-16 16v0c0 105.882 86.118 192 192 192 8.832 0 16-7.142 16-16z" />
<glyph unicode="&#xe912;" glyph-name="like" d="M1024 515.040c0-9.216-0.192-11.808-0.448-16.032l-0.352-6.688c-0.928-23.68-9.184-49.28-27.328-69.6 12.16-22.592 16.768-49.6 12.48-75.968-6.976-42.4-23.488-70.208-42.784-88.48 8.352-20.48 12-49.12-0.032-87.232-7.232-23.232-18.272-58.976-52.64-82.56 5.44-21.024 3.744-41.696-0.736-56.32-4.143-13.421-8.802-24.824-14.319-35.719l0.591 1.287c-22.88-41.216-61.28-61.696-114.624-61.696h-174.912c-89.024 0-174.88 18.304-191.136 22.016-75.84 17.408-111.328 25.92-129.76 30.464-0.608 0.192-0.896 0.256-1.472 0.384l-7.68 2.016c-0.551 0.072-1.048 0.196-1.522 0.368l0.050-0.016c-15.456-32.256-47.296-55.232-85.376-55.232h-96c-52.928 0-96 43.040-96 96v512c0 52.928 43.072 96 96 96h96c23.104 0 45.632-10.336 62.304-24.16 3.296 1.472 25.824 12.576 33.696 16.736 107.36 56.416 127.296 167.712 128 232.16 0.64 52.544 43.744 95.264 96 95.264 73.984 0 157.632-101.12 157.632-215.968 0-48-1.472-75.104-8-105.12 137.568-3.616 231.648-3.52 271.616-14.016 62.784-17.92 90.752-69.44 90.752-109.888zM224 544.032c0 17.673-14.327 32-32 32v0h-96c-17.673 0-32-14.327-32-32v0-512c0-17.673 14.327-32 32-32v0h96c17.673 0 32 14.327 32 32v0zM960 515.040c0 10.016-3.008 39.008-38.016 49.024-28.224 7.392-25.984 12-345.984 12 26.592 79.072 29.632 92.16 29.632 168 0 84.064-59.776 152-93.632 152-20 0-31.808-16.704-32-32-1.312-109.024-45.824-241.76-192-302.304-1.92-0.8-4.64-1.632-6.592-2.4-15.84-4.8-25.408-18.336-25.408-33.344l0.256-442.016c0-23.616 27.040-28.16 27.040-28.16 8.352-2.368 15.36-4.736 148.288-35.392 2.24-0.48 89.408-20.416 177.312-20.416h174.912c32.992 0 48.576 10.496 58.24 27.936 0.224 0.416 4.96 10.048 8.96 23.040 3.648 11.904 1.984 44.992-33.024 44.992h-50.176c-8.845 0-16.016 7.171-16.016 16.016s7.171 16.016 16.016 16.016v0h52.224c68.032 0 74.272 29.92 84.48 62.24 7.776 24.576 12.48 65.76-41.504 65.76h-63.040c-8.837 0-16 7.163-16 16s7.163 16 16 16v0h76.064c54.016 0 65.248 45.12 69.152 68.992 3.136 19.2-3.2 59.040-51.2 59.040h-61.984c-8.837 0-16 7.163-16 16s7.163 16 16 16v0h64c56 0 62.624 31.040 63.296 46.88 0.384 10.752 0.704 9.152 0.704 20.096zM192 80.032c0-26.519-21.497-48.016-48.016-48.016s-48.016 21.497-48.016 48.016v0c0 26.519 21.497 48.016 48.016 48.016s48.016-21.497 48.016-48.016v0zM160 80.032c0 8.837-7.163 16-16 16s-16-7.163-16-16v0c0.548-8.408 7.502-15.020 16-15.020s15.452 6.612 15.998 14.972l0.002 0.048z" />
<glyph unicode="&#xe914;" glyph-name="params" d="M320 640c0-52.16-25.344-98.048-64-127.232v-480.736c0-52.96-43.072-96-96-96s-96 43.040-96 96v480.736c-38.656 29.184-64 75.072-64 127.232 0 52.192 25.344 98.112 64 127.328v96.672c0 52.96 43.072 96 96 96s96-43.040 96-96v-96.672c38.656-29.216 64-75.136 64-127.328zM128 796.832c9.621 2.001 20.677 3.147 32 3.147s22.379-1.146 33.058-3.327l-1.058 0.181v67.2c0 17.673-14.327 32-32 32s-32-14.327-32-32v0zM192 483.296c-9.571-2.075-20.565-3.264-31.837-3.264-0.057 0-0.115 0-0.172 0h0.009c-10.976 0-21.664 1.088-32 3.264v-451.296c0-17.673 14.327-32 32-32s32 14.327 32 32v0zM256 640c0 9.472-1.76 18.368-4.32 26.944-3.178 10.902-7.847 20.415-13.864 28.906l0.2-0.298c-0.096 0.224-0.32 0.352-0.416 0.512-5.656 7.687-12.156 14.3-19.478 19.892l-0.234 0.172c-0.128 0.096-0.224 0.224-0.32 0.256-7.355 5.553-15.821 10.204-24.92 13.542l-0.68 0.218c-9.489 3.616-20.459 5.765-31.915 5.888h-0.053c-11.296 0-21.952-2.304-32-5.888-9.28-3.328-17.856-8-25.568-13.76-0.096-0.032-0.192-0.16-0.32-0.256-7.52-5.664-14.144-12.48-19.712-20.064-0.128-0.16-0.32-0.288-0.448-0.48-4.819-6.797-8.899-14.606-11.857-22.946l-0.207-0.67c-0.608-1.632-1.088-3.296-1.6-5.024-2.56-8.576-4.288-17.472-4.288-26.944 0-9.376 1.76-18.272 4.32-26.816 3.144-10.915 7.816-20.444 13.859-28.929l-0.195 0.289c0.096-0.192 0.32-0.32 0.416-0.512 5.568-7.648 12.192-14.4 19.712-20.064l0.32-0.256c7.712-5.824 16.32-10.464 25.568-13.76 10.048-3.616 20.704-5.92 32-5.92 11.264 0 21.92 2.304 32 5.92 9.771 3.511 18.231 8.166 25.801 13.93l-0.233-0.17 0.32 0.256c7.567 5.751 14.070 12.366 19.525 19.797l0.187 0.267c0.128 0.192 0.32 0.32 0.416 0.512 4.849 6.776 8.941 14.565 11.893 22.894l0.203 0.658c0.608 1.664 1.088 3.36 1.6 5.088 2.56 8.544 4.288 17.44 4.288 26.816zM1024 640c0-52.16-25.344-98.048-64-127.232v-480.736c0-52.96-43.072-96-96-96s-96 43.040-96 96v480.736c-38.656 29.184-64 75.072-64 127.232 0 52.192 25.344 98.112 64 127.328v96.672c0 52.96 43.072 96 96 96s96-43.040 96-96v-96.672c38.656-29.216 64-75.136 64-127.328zM832 796.832c9.621 2.002 20.677 3.148 32 3.148s22.379-1.146 33.058-3.328l-1.058 0.181v67.2c0 17.673-14.327 32-32 32s-32-14.327-32-32v0zM896 483.296c-9.571-2.075-20.565-3.264-31.837-3.264-0.057 0-0.115 0-0.172 0h0.009c-10.976 0-21.664 1.088-32 3.264v-451.296c0-17.673 14.327-32 32-32s32 14.327 32 32v0zM960 640c0 9.472-1.76 18.368-4.32 26.944-3.184 10.901-7.852 20.414-13.865 28.907l0.201-0.299c-0.096 0.224-0.32 0.352-0.416 0.512-5.656 7.687-12.156 14.3-19.478 19.892l-0.234 0.172c-0.128 0.096-0.224 0.224-0.32 0.256-7.346 5.55-15.801 10.2-24.889 13.541l-0.679 0.219c-9.499 3.62-20.481 5.769-31.949 5.888h-0.051c-11.519-0.118-22.501-2.267-32.654-6.105l0.654 0.217c-9.767-3.559-18.222-8.209-25.816-13.939l0.248 0.179c-0.096-0.032-0.192-0.16-0.32-0.256-7.52-5.664-14.144-12.48-19.712-20.064-0.128-0.16-0.32-0.288-0.448-0.48-4.821-6.797-8.901-14.606-11.857-22.946l-0.207-0.67c-0.64-1.632-1.088-3.296-1.6-5.024-2.56-8.576-4.288-17.472-4.288-26.944 0-9.376 1.76-18.272 4.32-26.816 3.141-10.916 7.813-20.445 13.859-28.928l-0.195 0.288c0.096-0.192 0.32-0.32 0.416-0.512 5.568-7.648 12.192-14.4 19.712-20.064l0.32-0.256c7.712-5.824 16.32-10.464 25.568-13.76 10.048-3.616 20.704-5.92 32-5.92 11.264 0 21.92 2.304 32 5.92 9.28 3.296 17.824 7.936 25.568 13.76l0.32 0.256c7.567 5.751 14.070 12.366 19.525 19.797l0.187 0.267 0.448 0.512c5.12 7.104 9.056 15.104 12.064 23.552 0.608 1.664 1.088 3.36 1.6 5.088 2.56 8.544 4.288 17.44 4.288 26.816zM672 256c0-52.16-25.344-98.048-64-127.232v-96.736c0-52.96-43.072-96-96-96s-96 43.040-96 96v96.736c-38.656 29.184-64 75.040-64 127.232s25.344 98.112 64 127.36v480.64c0 52.96 43.072 96 96 96s96-43.040 96-96v-480.64c38.656-29.248 64-75.168 64-127.36zM480 412.832c10.336 2.048 21.024 3.2 32 3.2s21.664-1.152 32-3.2v451.2c0 17.673-14.327 32-32 32s-32-14.327-32-32v0zM544 99.264c-9.62-2.073-20.671-3.26-32-3.26s-22.38 1.187-33.037 3.444l1.037-0.184v-67.232c0-17.673 14.327-32 32-32s32 14.327 32 32v0zM608 256c0 9.472-1.76 18.4-4.32 26.976-0.48 1.664-0.96 3.392-1.568 4.992-3.174 9.010-7.253 16.818-12.267 23.919l0.203-0.303c-0.128 0.192-0.32 0.32-0.448 0.48-5.656 7.687-12.156 14.3-19.478 19.892l-0.234 0.172-0.32 0.256c-7.346 5.55-15.801 10.2-24.889 13.541l-0.679 0.219c-9.499 3.608-20.479 5.756-31.943 5.887l-0.057 0.001c-11.521-0.132-22.502-2.28-32.659-6.106l0.659 0.218c-9.767-3.559-18.222-8.209-25.816-13.939l0.248 0.179-0.32-0.256c-7.52-5.664-14.144-12.48-19.712-20.064l-0.448-0.48c-4.811-6.798-8.89-14.606-11.855-22.942l-0.209-0.674c-0.608-1.6-1.088-3.328-1.6-4.992-2.56-8.576-4.288-17.504-4.288-26.976 0-9.344 1.76-18.272 4.32-26.88 3.148-10.904 7.82-20.421 13.859-28.896l-0.195 0.288c0.096-0.16 0.32-0.32 0.416-0.48 11.358-15.471 26.886-27.274 44.93-33.835l0.67-0.213c10.048-3.648 20.704-5.952 32-5.952 11.264 0 21.92 2.304 32 5.952 9.896 3.551 18.464 8.282 26.114 14.151l-0.226-0.167c7.561 5.758 14.063 12.372 19.525 19.797l0.187 0.267 0.448 0.48c5.12 7.136 9.056 15.104 12.064 23.584 0.608 1.696 1.088 3.328 1.6 5.056 2.56 8.576 4.288 17.504 4.288 26.88z" />
<glyph unicode="&#xe915;" glyph-name="Shape_1" horiz-adv-x="925" d="M698.583 270.666c143.145-21.19 172.544-67.782 199.531-93.713s26.211-144.268 26.211-144.268l-405.9-0.578 39.127 95.876-54.503 226.899c0-41.373-21.256-34.717-21.256-34.717h-34.535c-27.020 0-25.435 20.926-24.312 27.367v0l-42.133-219.549 37.178-96.025-418.188-0.628s7.267 119.709 34.254 145.623c26.987 25.93 54.388 72.506 197.533 93.713 143.162 21.207 132.757 96.867 137.447 94.522-0.875 28.705-3.634 68.955-3.634 68.955s-58.517 31.694-80.467 94.505c-46.080 18.581-40.002 30.555-44.478 54.553 0 0-13.989 97.412 17.127 95.381 0 0 21.306 0 16.351 22.363-1.652 37.26-5.021 101.739-2.543 126.613 2.477 24.807 14.171 91.879 66.114 101.822 51.943 9.91 31.116 4.955 48.425 7.432 17.325 2.477 12.387 12.453 44.527 12.453l66.791 10.735c32.14 0 52.753-47.715 70.061-50.193 17.325-2.461 17.458 7.597 52.901 0.958 51.943-9.943 44.726-78.27 47.203-103.11 2.477-24.824 4.129-89.319-0.826-111.682s10.521-19.869 10.521-19.869c37.095 0 18.795-95.381 18.795-95.381-5.715-25.27-8.258-28.292-42.777-50.209-21.966-62.811-81.342-101.343-81.342-101.343s0.314-47.93 0.050-59.227c0.991-4.459-7.102-79.41 126.745-99.262zM479.149-64.198h-23.932l-37.227 96.157 100.435 0.149z" />
<glyph unicode="&#xe916;" glyph-name="stack" horiz-adv-x="1170" d="M1170.286 338.322v-256c0-80.791-65.494-146.286-146.286-146.286v0h-877.714c-80.791 0-146.286 65.494-146.286 146.286v0 256c0 6.51 0.914 13.239 2.779 19.931l146.359 548.754c9.086 30.822 37.094 52.949 70.281 53.029h731.438c32.549 0 61.44-21.833 70.29-53.029l146.359-548.754c1.829-6.693 2.779-13.422 2.779-19.931zM1097.143 338.322l-146.322 548.645h-731.355l-146.322-548.681v-256c0-40.302 32.805-73.143 73.143-73.143h877.714c40.302 0 73.143 32.841 73.143 73.143zM903.643 786.542l125.989-438.821c0.76-2.787 1.197-5.987 1.197-9.289 0-20.209-16.359-36.597-36.557-36.644h-167.063l-52.919-105.911c-12.277-24.131-36.926-40.375-65.37-40.375-0.033 0-0.066 0-0.098 0h-247.401c-27.721 0-53.029 15.579-65.426 40.375l-52.919 105.911h-167.095c-11.337 0-22.053 5.266-29.001 14.263-4.707 6.11-7.544 13.871-7.544 22.295 0 3.333 0.444 6.563 1.277 9.633l-0.059-0.257 125.989 438.821c4.295 15.769 18.487 27.173 35.343 27.173 0.008 0 0.015 0 0.023 0h566.271c0.006 0 0.014 0 0.022 0 16.856 0 31.048-11.403 35.283-26.916l0.060-0.256zM975.214 374.894l-106.935 402.286h-566.272l-106.935-402.286h148.005c0.072 0 0.157 0 0.242 0 28.401 0 53.003-16.269 64.994-39.996l0.191-0.416 52.919-105.874h247.442l52.919 105.874c12.182 24.143 36.783 40.412 65.184 40.412 0.085 0 0.17 0 0.255 0h-0.013z" />
<glyph unicode="&#xe917;" glyph-name="star" horiz-adv-x="1062" d="M1025.593 501.476l-196.722-196.418 45.625-272.422c0.597-3.478 0.938-7.485 0.938-11.571 0-24.623-12.383-46.354-31.261-59.306l-0.245-0.159c-12.014-8.301-26.892-13.259-42.927-13.259-13.183 0-25.583 3.351-36.395 9.249l0.398-0.199-234.041 125.99-234.003-125.99c-10.418-5.717-22.829-9.080-36.025-9.080-16.043 0-30.925 4.971-43.19 13.456l0.253-0.166c-19.126 13.093-31.513 34.814-31.513 59.429 0 4.099 0.343 8.117 1.003 12.028l-0.059-0.422 45.625 272.422-196.722 196.456c-13.053 12.899-21.137 30.801-21.137 50.591 0 8.258 1.407 16.186 3.996 23.56l-0.152-0.498c9.283 25.744 31.699 44.609 58.949 48.648l0.405 0.049 268.44 39.898 116.698 242.233c12.463 24.913 37.786 41.72 67.034 41.72 0.14 0 0.28 0 0.42-0.001h-0.022c28.9 0 55.182-16.308 67.432-41.719l116.698-242.233 268.402-39.898c27.679-4.078 50.121-22.943 59.266-48.18l0.164-0.517c8.837-25.79 2.162-54.234-17.332-73.69zM972.269 552.145l-268.44 39.936c-24.81 3.682-45.345 19.163-55.974 40.453l-0.195 0.431-116.698 242.157-116.698-242.157c-10.829-21.717-31.361-37.195-55.76-40.834l-0.408-0.050-268.44-39.936 196.722-196.418c16.498-16.498 23.969-39.595 20.177-62.312l-45.663-272.498 234.041 125.952c10.426 5.69 22.837 9.037 36.030 9.037s25.604-3.346 36.431-9.236l-0.401 0.2 234.003-125.914-45.625 272.46c-3.793 22.718 3.717 45.815 20.177 62.312z" />
<glyph unicode="&#xe919;" glyph-name="user" d="M1021.248-18.496c-8.207-26.528-32.515-45.467-61.247-45.472h-896.001c-0.004 0-0.009 0-0.014 0-35.346 0-64 28.654-64 64 0 22.113 11.215 41.606 28.267 53.103l0.228 0.145c6.4 4.256 123.136 80.8 296.736 118.368-63.68 80.736-104.544 189.216-121.92 261.44-24.096 100.096-14.752 295.936 81.344 417.952 56.192 71.296 134.816 108.992 227.36 108.992s171.168-37.696 227.328-108.992c96.128-122.016 105.472-317.856 81.376-417.984-17.376-72.192-58.24-180.704-121.92-261.44 173.6-37.536 290.304-114.080 296.704-118.336 23.488-15.616 33.92-44.8 25.76-71.776zM762.848 616.064c-17.472 136.96-95.936 280-250.848 280-154.88 0-233.376-143.040-250.848-280-19.040-142.496 25.184-291.84 114.304-404.8l10.464-13.248c76.32-87.68 175.84-87.68 252.16 0l10.432 13.28c89.216 112.96 133.28 262.208 114.336 404.768zM959.968 0.032c-6.048 4.032-114.048 74.304-274.72 109.056l-79.488 17.216c-28.352-18.656-59.52-30.304-93.76-30.304s-65.408 11.648-93.76 30.304l-79.488-17.216c-161.92-35.008-270.336-106.112-274.752-109.056z" />
<glyph unicode="&#xe91a;" glyph-name="world" d="M1004.579 448c0-272.031-220.548-492.579-492.579-492.579s-492.579 220.548-492.579 492.579c0 272.066 220.548 492.579 492.579 492.579s492.579-220.513 492.579-492.579zM831.912 732.919c-34.287-27.041-73.385-50.445-115.323-68.509l-3.39-1.299c22.246-61.546 34.71-128.812 36.476-199.15h190.535c-3.849 103.852-44.258 197.582-108.649 269.358l0.352-0.399zM496.11 19.827v189.016c-45.55-1.412-89.618-8.545-131.213-21.539 32.415-66.313 76.729-123.41 129.554-167.371 0.53-0.071 1.095-0.071 1.66-0.106zM527.89 876.244v-220.866c50.141 1.624 98.304 10.593 143.572 26.13-33.086 77.895-81.991 144.737-141.948 194.631l-1.624 0.106zM701.228 692.383c41.574 17.716 77.432 38.999 110 64.313l-1.103-0.825c-60.442 58.671-138.332 99.677-225.151 114.507l-2.53 0.357c49.258-49.187 89.83-109.78 118.784-178.353zM494.451 876.138c-59.922-49.894-108.826-116.736-141.912-194.666 45.268-15.537 93.466-24.47 143.572-26.094v220.866l-1.66-0.106zM441.556 870.735c-89.349-15.187-167.238-56.193-227.786-114.966l0.105 0.102c31.465-24.489 67.323-45.772 105.72-62.273l3.177-1.215c28.954 68.573 69.526 129.165 118.784 178.353zM306.105 463.96h189.97v159.673c-56.181 1.7-109.405 12.027-159.151 29.695l3.644-1.129c-20.479-55.868-32.985-120.38-34.451-187.612l-0.011-0.662zM306.105 432.11c2.013-77.33 18.22-150.387 45.762-215.887 42.841 14.143 92.251 22.972 143.509 24.418l0.734 0.016v191.453zM334.848 176.358c-38.713-15.273-72.092-33.442-102.847-55.089l1.542 1.029c56.852-48.942 127.553-83.343 205.452-96.641l2.526-0.357c-42.713 42.868-78.411 92.763-105.203 147.794l-1.434 3.264zM529.549 19.933c52.824 43.961 97.103 101.058 129.554 167.371-38.99 12.448-83.95 20.229-130.533 21.524l-0.681 0.015v-189.016l1.66 0.071zM582.444 25.3c80.424 13.656 151.126 48.057 208.538 97.469l-0.56-0.471c-29.203 20.604-62.57 38.761-97.989 52.872l-3.281 1.153c-28.249-58.282-63.97-108.165-106.721-151.035l0.013 0.013zM717.895 432.11h-190.005v-191.453c50.141-1.518 98.551-9.746 144.243-24.435 27.275 63.645 43.923 137.579 45.749 215.182l0.013 0.706zM717.895 463.925c-1.478 67.895-13.984 132.406-35.79 192.457l1.327-4.182c-46.111-16.554-99.345-26.893-154.755-28.582l-0.787-0.019v-159.673zM83.791 463.925h190.535c1.508 71.807 14.75 140.052 37.876 203.548l-1.4-4.397c-45.328 19.374-84.426 42.789-119.824 70.688l1.111-0.844c-64.046-71.386-104.457-165.129-108.274-268.224l-0.023-0.77zM209.673 144.013c34.604 24.682 72.174 45.621 112.428 61.299-28.543 66.883-45.93 144.566-47.762 226.088l-0.013 0.71h-190.535c4.119-112.97 51.455-214.142 125.861-288.112l0.020-0.020zM940.244 432.146h-190.57c-1.838-82.245-19.226-159.941-49.322-230.944l1.548 4.111c42.936-17.122 79.985-37.733 113.924-62.368l-1.496 1.034c74.427 73.991 121.762 175.163 125.859 287.371l0.022 0.762z" />
<glyph unicode="&#xe91b;" glyph-name="Shape_3" horiz-adv-x="1254" d="M1167.042-63.965h-1080.62c-47.74 0-86.44 38.206-86.44 85.345v682.673c0 47.122 38.7 85.31 86.44 85.31h262.073s-2.701 5.12-2.701 64.018 48.375 106.655 108.050 106.655h345.812c59.674 0 108.050-47.757 108.050-106.655s2.701-64.018 2.701-64.018h256.636c47.74 0 86.457-38.188 86.457-85.31v-682.673c0-47.139-38.718-85.345-86.457-85.345zM628.683 107.873c143.236 0 259.354 114.582 259.354 255.965 0 141.418-116.118 256-259.354 256s-259.354-114.582-259.354-256c0-141.365 116.118-255.965 259.354-255.965z" />
<glyph unicode="&#xe91c;" glyph-name="slideshow" horiz-adv-x="1170" d="M1082.514-28.599h-870.4c-45.782 0-82.895 37.113-82.895 82.895h870.4c45.782 0 82.895 37.113 82.895 82.895v0 663.162c45.782 0 82.895-37.113 82.895-82.895v0-663.162c0-45.782-37.113-82.895-82.895-82.895v0zM958.171 95.744h-870.4c-45.782 0-82.895 37.113-82.895 82.895v0 663.162c0 45.836 37.108 82.895 82.895 82.895h870.4c45.787 0 82.895-37.059 82.895-82.895v-663.162c0-45.782-37.113-82.895-82.895-82.895v0zM958.171 841.801h-870.4v-663.162h870.4zM321.926 334.775l123.855 211.529 123.904-131.852 170.374 270.872 178.078-466.066h-789.797l100.645 212.602zM253.562 717.458c0.014 0 0.032 0 0.049 0 45.755 0 82.846-37.092 82.846-82.846 0-45.738-37.064-82.819-82.795-82.846h-0.003c-0.014 0-0.032 0-0.049 0-45.755 0-82.846 37.092-82.846 82.846 0 45.738 37.064 82.819 82.795 82.846h0.003z" />
<glyph unicode="&#xe91d;" glyph-name="camera" d="M304 352c0-114.876 93.124-208 208-208s208 93.124 208 208-93.124 208-208 208-208-93.124-208-208zM960 704h-224c-16 64-32 128-96 128h-256c-64 0-80-64-96-128h-224c-35.2 0-64-28.8-64-64v-576c0-35.2 28.8-64 64-64h896c35.2 0 64 28.8 64 64v576c0 35.2-28.8 64-64 64zM512 68c-156.85 0-284 127.148-284 284 0 156.85 127.15 284 284 284 156.852 0 284-127.15 284-284 0-156.852-127.146-284-284-284zM960 512h-128v64h128v-64z" />
<glyph unicode="&#xea8b;" glyph-name="google-plus" d="M325.8 502.6v-111.8h184.8c-7.4-48-55.8-140.6-184.8-140.6-111.2 0-202 92.2-202 205.8s90.8 205.8 202 205.8c63.4 0 105.6-27 129.8-50.2l88.4 85.2c-56.8 53-130.4 85.2-218.2 85.2-180.2-0.2-325.8-145.8-325.8-326s145.6-325.8 325.8-325.8c188 0 312.8 132.2 312.8 318.4 0 21.4-2.4 37.8-5.2 54h-307.6zM1024 512h-96v96h-96v-96h-96v-96h96v-96h96v96h96z" />
<glyph unicode="&#xea90;" glyph-name="facebook" d="M608 768h160v192h-160c-123.514 0-224-100.486-224-224v-96h-128v-192h128v-512h192v512h160l32 192h-192v96c0 17.346 14.654 32 32 32z" />
<glyph unicode="&#xeaca;" glyph-name="linkedin2" d="M384 576h177.106v-90.782h2.532c24.64 44.194 84.958 90.782 174.842 90.782 186.946 0 221.52-116.376 221.52-267.734v-308.266h-184.61v273.278c0 65.184-1.334 149.026-96.028 149.026-96.148 0-110.82-70.986-110.82-144.292v-278.012h-184.542v576zM64 576h192v-576h-192v576zM256 736c0-53.019-42.981-96-96-96s-96 42.981-96 96c0 53.019 42.981 96 96 96s96-42.981 96-96z" />
</font>
</defs>
</svg>
